<mxfile host="app.diagrams.net" modified="2024-06-01T13:50:31.321Z" agent="Mozilla/5.0 (Windows NT 10.0; Win64; x64) AppleWebKit/537.36 (KHTML, like Gecko) Chrome/125.0.0.0 Safari/537.36" etag="zptsKUOu2EDWKxvGDzaK" version="24.4.13" type="device">
  <diagram name="Page-1" id="sFIVNfgaGrQyi3gbg-Eg">
    <mxGraphModel dx="1290" dy="557" grid="1" gridSize="10" guides="1" tooltips="1" connect="1" arrows="1" fold="1" page="1" pageScale="1" pageWidth="1100" pageHeight="850" math="0" shadow="0">
      <root>
        <mxCell id="0" />
        <mxCell id="1" parent="0" />
        <mxCell id="PGXjYRywPTXEATfIr_pr-2" value="" style="rounded=0;whiteSpace=wrap;html=1;" vertex="1" parent="1">
          <mxGeometry x="370" y="120" width="400" height="540" as="geometry" />
        </mxCell>
        <mxCell id="PGXjYRywPTXEATfIr_pr-3" value="User" style="shape=umlActor;verticalLabelPosition=bottom;verticalAlign=top;html=1;outlineConnect=0;" vertex="1" parent="1">
          <mxGeometry x="250" y="330" width="30" height="60" as="geometry" />
        </mxCell>
        <mxCell id="PGXjYRywPTXEATfIr_pr-4" value="Update Personal Information" style="ellipse;whiteSpace=wrap;html=1;" vertex="1" parent="1">
          <mxGeometry x="520" y="200" width="110" height="70" as="geometry" />
        </mxCell>
        <mxCell id="PGXjYRywPTXEATfIr_pr-5" value="Set Personal Preferences" style="ellipse;whiteSpace=wrap;html=1;" vertex="1" parent="1">
          <mxGeometry x="430" y="480" width="110" height="70" as="geometry" />
        </mxCell>
        <mxCell id="PGXjYRywPTXEATfIr_pr-6" value="Update Password" style="ellipse;whiteSpace=wrap;html=1;" vertex="1" parent="1">
          <mxGeometry x="520" y="300" width="110" height="70" as="geometry" />
        </mxCell>
        <mxCell id="PGXjYRywPTXEATfIr_pr-8" value="" style="endArrow=none;html=1;rounded=0;entryX=0;entryY=0.5;entryDx=0;entryDy=0;exitX=1;exitY=0.3333333333333333;exitDx=0;exitDy=0;exitPerimeter=0;" edge="1" parent="1" source="PGXjYRywPTXEATfIr_pr-3" target="PGXjYRywPTXEATfIr_pr-4">
          <mxGeometry width="50" height="50" relative="1" as="geometry">
            <mxPoint x="280" y="280" as="sourcePoint" />
            <mxPoint x="570" y="380" as="targetPoint" />
          </mxGeometry>
        </mxCell>
        <mxCell id="PGXjYRywPTXEATfIr_pr-9" value="" style="endArrow=none;html=1;rounded=0;entryX=0;entryY=0.5;entryDx=0;entryDy=0;exitX=1;exitY=0.3333333333333333;exitDx=0;exitDy=0;exitPerimeter=0;" edge="1" parent="1" source="PGXjYRywPTXEATfIr_pr-3" target="PGXjYRywPTXEATfIr_pr-6">
          <mxGeometry width="50" height="50" relative="1" as="geometry">
            <mxPoint x="280" y="280" as="sourcePoint" />
            <mxPoint x="440" y="245" as="targetPoint" />
          </mxGeometry>
        </mxCell>
        <mxCell id="PGXjYRywPTXEATfIr_pr-13" value="" style="endArrow=none;html=1;rounded=0;exitX=1;exitY=0.3333333333333333;exitDx=0;exitDy=0;exitPerimeter=0;entryX=0;entryY=0.5;entryDx=0;entryDy=0;" edge="1" parent="1" source="PGXjYRywPTXEATfIr_pr-3" target="PGXjYRywPTXEATfIr_pr-5">
          <mxGeometry width="50" height="50" relative="1" as="geometry">
            <mxPoint x="520" y="540" as="sourcePoint" />
            <mxPoint x="570" y="490" as="targetPoint" />
          </mxGeometry>
        </mxCell>
        <mxCell id="PGXjYRywPTXEATfIr_pr-15" value="User Management" style="text;html=1;align=center;verticalAlign=middle;whiteSpace=wrap;rounded=0;" vertex="1" parent="1">
          <mxGeometry x="490" y="130" width="170" height="30" as="geometry" />
        </mxCell>
        <mxCell id="PGXjYRywPTXEATfIr_pr-17" value="Set Dark/Light Theme" style="ellipse;whiteSpace=wrap;html=1;" vertex="1" parent="1">
          <mxGeometry x="600" y="425" width="110" height="70" as="geometry" />
        </mxCell>
        <mxCell id="PGXjYRywPTXEATfIr_pr-18" value="Set notification settings" style="ellipse;whiteSpace=wrap;html=1;" vertex="1" parent="1">
          <mxGeometry x="600" y="540" width="110" height="70" as="geometry" />
        </mxCell>
        <mxCell id="PGXjYRywPTXEATfIr_pr-20" value="" style="endArrow=classic;html=1;rounded=0;exitX=1;exitY=0;exitDx=0;exitDy=0;entryX=0;entryY=0.5;entryDx=0;entryDy=0;dashed=1;" edge="1" parent="1" source="PGXjYRywPTXEATfIr_pr-5" target="PGXjYRywPTXEATfIr_pr-17">
          <mxGeometry width="50" height="50" relative="1" as="geometry">
            <mxPoint x="520" y="420" as="sourcePoint" />
            <mxPoint x="570" y="370" as="targetPoint" />
          </mxGeometry>
        </mxCell>
        <mxCell id="PGXjYRywPTXEATfIr_pr-24" value="" style="endArrow=classic;html=1;rounded=0;exitX=1;exitY=1;exitDx=0;exitDy=0;entryX=0;entryY=0.5;entryDx=0;entryDy=0;dashed=1;" edge="1" parent="1" source="PGXjYRywPTXEATfIr_pr-5" target="PGXjYRywPTXEATfIr_pr-18">
          <mxGeometry width="50" height="50" relative="1" as="geometry">
            <mxPoint x="534" y="500" as="sourcePoint" />
            <mxPoint x="580" y="470" as="targetPoint" />
          </mxGeometry>
        </mxCell>
        <mxCell id="PGXjYRywPTXEATfIr_pr-25" value="&amp;lt;&amp;lt;include&amp;gt;&amp;gt;" style="text;html=1;align=center;verticalAlign=middle;whiteSpace=wrap;rounded=0;" vertex="1" parent="1">
          <mxGeometry x="520" y="450" width="60" height="30" as="geometry" />
        </mxCell>
        <mxCell id="PGXjYRywPTXEATfIr_pr-26" value="&amp;lt;&amp;lt;include&amp;gt;&amp;gt;" style="text;html=1;align=center;verticalAlign=middle;whiteSpace=wrap;rounded=0;" vertex="1" parent="1">
          <mxGeometry x="545" y="530" width="60" height="30" as="geometry" />
        </mxCell>
      </root>
    </mxGraphModel>
  </diagram>
</mxfile>
